<svg width="107" height="28" viewBox="0 0 107 28" fill="none" xmlns="http://www.w3.org/2000/svg">
<g clip-path="url(#clip0_10_502)">
<path d="M35.0716 24.506V9.98666H39.879V24.506H35.0716ZM37.5042 8.80592C36.6932 8.80592 36.0657 8.59932 35.6218 8.18613C35.197 7.77304 34.9846 7.22216 34.9846 6.53352C34.9846 5.88427 35.1969 5.3334 35.6216 4.8809C36.0657 4.4284 36.6932 4.20215 37.504 4.20215C38.315 4.20215 38.9329 4.4284 39.3577 4.8809C39.8018 5.3334 40.0238 5.88427 40.0238 6.53352C40.0238 7.22216 39.8018 7.77304 39.3577 8.18613C38.933 8.59932 38.3152 8.80592 37.5043 8.80592H37.5042ZM47.0523 24.8015C45.662 24.8015 44.6097 24.4276 43.8952 23.6799C43.2002 22.9127 42.8528 21.8503 42.8528 20.4927V13.6166H40.9414V9.98638H42.8528V6.445H47.6602V9.98666H50.7884V13.6161H47.66V19.7841C47.66 20.2367 47.7469 20.5614 47.9207 20.758C48.1138 20.9351 48.4033 21.0237 48.7894 21.0237C49.3108 21.0237 49.8804 20.7876 50.4982 20.3154L51.5989 23.5323C51.0391 23.9263 50.402 24.2411 49.6875 24.4766C48.973 24.6933 48.0947 24.8017 47.0524 24.8017L47.0523 24.8015ZM58.877 24.8015C56.6758 24.8015 54.9381 24.1621 53.6639 22.8833C52.4089 21.6044 51.7815 19.7451 51.7815 17.3054C51.7815 15.5347 52.1386 14.0493 52.8529 12.8491C53.5867 11.6098 54.5042 10.7736 55.6054 10.3406C56.7636 9.8881 57.8353 9.66185 58.8205 9.66185C60.0561 9.66185 61.0891 9.91761 61.9196 10.4291C62.7501 10.921 63.3582 11.4621 63.744 12.0523C64.15 12.6425 64.4396 13.1048 64.6127 13.4394L61.2829 15.6233C60.9745 14.974 60.6366 14.4625 60.2692 14.0886C59.9028 13.7148 59.459 13.5279 58.9379 13.5279C58.2041 13.5279 57.6249 13.823 57.2005 14.4131C56.776 15.0034 56.5638 15.8987 56.5638 17.0988C56.5638 18.3973 56.8147 19.3515 57.3165 19.9613C57.8183 20.5714 58.5328 20.8764 59.4599 20.8764C60.1937 20.8764 60.8018 20.7384 61.2843 20.4626C61.7861 20.1868 62.2592 19.8326 62.7038 19.4001L64.2388 23.0591C63.7753 23.4522 63.0899 23.8458 62.1824 24.2399C61.275 24.6133 60.1744 24.8 58.8808 24.8L58.877 24.8015ZM65.8721 24.506V4.79224H70.7085V10.7832C71.1139 10.488 71.6062 10.2323 72.1855 10.0159C72.7646 9.77978 73.4597 9.66171 74.2709 9.66171C75.9698 9.66171 77.2344 10.1538 78.0646 11.138C78.9142 12.1222 79.339 13.5093 79.339 15.2994V24.5075H74.5025V15.8891C74.5025 15.0635 74.3482 14.4635 74.0398 14.0891C73.7314 13.696 73.3258 13.4995 72.8231 13.4995C72.3986 13.4995 72.0027 13.598 71.6354 13.795C71.2689 13.992 70.96 14.1989 70.7087 14.4156V24.5089H65.8722L65.8721 24.506ZM83.0525 24.8015C82.28 24.8015 81.6718 24.5753 81.2278 24.1228C80.7838 23.6703 80.5617 23.0899 80.5617 22.3816C80.5617 21.6733 80.7838 21.083 81.2278 20.6109C81.6719 20.1387 82.28 19.9026 83.0522 19.9026C83.786 19.9026 84.375 20.1387 84.819 20.6109C85.2637 21.0831 85.4861 21.6734 85.4861 22.3816C85.4861 23.09 85.2642 23.6704 84.8204 24.1228C84.3959 24.5753 83.8071 24.8015 83.054 24.8015H83.0525ZM86.6087 24.506V9.98666H91.4162V24.506H86.6087ZM89.0408 8.80873C88.2296 8.80873 87.6021 8.60214 87.1581 8.18895C86.7334 7.77576 86.521 7.22488 86.521 6.53633C86.521 5.88709 86.7334 5.33621 87.1581 4.88371C87.6022 4.43121 88.2296 4.20496 89.0405 4.20496C89.8515 4.20496 90.4694 4.43121 90.8942 4.88371C91.3382 5.33621 91.5603 5.88709 91.5603 6.53633C91.5603 7.22498 91.3382 7.77585 90.8942 8.18895C90.4695 8.60214 89.8517 8.80873 89.0408 8.80873ZM99.9056 24.8015C98.7857 24.8015 97.7913 24.6146 96.9225 24.2408C96.0536 23.8474 95.3103 23.3161 94.6925 22.6472C94.0941 21.9585 93.6307 21.1519 93.3023 20.2272C92.9934 19.2828 92.839 18.2596 92.839 17.1578C92.839 15.5249 93.1866 14.0986 93.8817 12.8787C94.596 11.6785 95.4841 10.8424 96.546 10.3702C97.6272 9.89795 98.747 9.66185 99.9055 9.66185C101.566 9.66185 102.936 10.0553 104.017 10.8423C105.117 11.6293 105.89 12.613 106.334 13.7935C106.778 14.9739 107 16.0954 107 17.1578C107 18.2595 106.836 19.2827 106.507 20.2272C106.199 21.1518 105.735 21.9584 105.116 22.6471C104.518 23.316 103.774 23.8475 102.886 24.2415C102.017 24.6159 101.023 24.8031 99.9027 24.8031L99.9056 24.8015ZM99.9056 21.024C100.716 21.024 101.305 20.6797 101.672 19.991C102.039 19.2827 102.222 18.3384 102.222 17.1581C102.222 16.0365 102.029 15.1413 101.643 14.4724C101.257 13.8034 100.678 13.4689 99.9058 13.4689C99.1526 13.4689 98.5832 13.8034 98.1974 14.4724C97.8116 15.1413 97.6187 16.0365 97.6187 17.1579C97.6187 18.3384 97.8024 19.2827 98.1698 19.9909C98.5565 20.6795 99.1356 21.0238 99.9071 21.0238L99.9056 21.024Z" fill="white"/>
<path d="M3.98133 0.174574C2.64943 0.980406 0.0251354 4.05273 0 4.85842V6.19228C0 7.88303 1.55093 9.36888 2.95879 9.36888C4.64921 9.36888 6.0579 7.94101 6.05817 6.24646C6.05817 7.94087 7.41852 9.36888 9.10936 9.36888C10.8001 9.36888 12.1168 7.94101 12.1168 6.24646C12.1168 7.94087 13.5627 9.36888 15.2532 9.36888H15.2835C16.974 9.36888 18.4213 7.94101 18.4213 6.24646C18.4213 7.94087 19.7375 9.36888 21.4279 9.36888C23.1183 9.36888 24.4787 7.94101 24.4787 6.24646C24.4787 7.94087 25.8874 9.36888 27.5778 9.36888C28.9851 9.36888 30.536 7.88317 30.536 6.19228V4.85842C30.5098 4.05273 27.8858 0.980406 26.5544 0.174574C22.4154 0.0263834 19.5441 0.000910925 15.267 0.00147385C10.9913 0.00175532 5.1591 0.0697289 3.98105 0.174574H3.98133ZM12.0955 8.57262C11.9338 8.85975 11.7336 9.12245 11.5005 9.35312C10.8391 10.0142 9.94937 10.3841 9.0229 10.3833C8.05823 10.3833 7.17836 9.98923 6.5403 9.35284C6.30967 9.12204 6.13427 8.87519 5.97269 8.58782V8.58838C5.81248 8.87632 5.58737 9.12288 5.35673 9.35396C4.69358 10.0149 3.80258 10.3846 2.87496 10.3837C2.75895 10.3837 2.6388 10.3513 2.54074 10.3176C2.4054 11.7601 2.34739 13.1378 2.32751 14.1441V14.1497C2.32474 14.6605 2.32267 15.0799 2.32005 15.6626C2.34629 18.6897 2.02588 25.4716 3.6293 27.1379C6.11383 27.7289 10.6857 27.9977 15.273 27.9991H15.2735C19.8605 27.9977 24.4327 27.7289 26.9172 27.1393C28.5206 25.4727 28.2002 18.6908 28.2265 15.6647C28.2241 15.082 28.2218 14.6624 28.2191 14.1518V14.1462C28.1984 13.1411 28.1411 11.7629 28.0051 10.3207C27.907 10.3544 27.7859 10.3872 27.6695 10.3872C26.7417 10.3881 25.8505 10.0185 25.187 9.35762C24.9557 9.12612 24.7313 8.87956 24.5706 8.59204L24.57 8.59106C24.4088 8.87815 24.2333 9.12542 24.0019 9.35608C23.3639 9.99218 22.4841 10.3862 21.5197 10.3862C20.5553 10.3862 19.6802 9.99218 19.0421 9.35608C18.8092 9.12522 18.6089 8.86255 18.4469 8.57557C18.2871 8.86241 18.0888 9.12511 17.8577 9.35608C17.1942 10.0174 16.3027 10.3873 15.3746 10.3862C15.3409 10.3862 15.3069 10.3848 15.2737 10.3834H15.2726C15.2391 10.3848 15.2055 10.3862 15.1718 10.3862C14.207 10.3862 13.3271 9.99218 12.6889 9.35608C12.4577 9.12526 12.2592 8.86265 12.0992 8.57586L12.0955 8.57262ZM9.54578 11.9323L9.5455 11.9334H9.54826C10.5578 11.9357 11.4555 11.9334 12.5659 13.1695C13.4415 13.0762 14.3544 13.0293 15.27 13.0309H15.2714C16.187 13.0295 17.0999 13.0773 17.9755 13.1702C19.0873 11.9346 19.9836 11.9374 20.9931 11.9346H20.9959V11.9332C21.4737 11.9332 23.381 11.9332 24.711 15.7386L26.1401 20.9597C27.1987 24.8439 25.8013 24.9396 24.0584 24.9424C21.4731 24.8453 20.0423 22.9314 20.0423 21.0188C18.6115 21.2581 16.9418 21.3777 15.2728 21.3777H15.2721C13.6029 21.3777 11.9338 21.2581 10.5033 21.0188C10.5033 22.9314 9.07248 24.8439 6.48741 24.9424C4.74451 24.9396 3.34687 24.8439 4.40573 20.9611L5.83375 15.74C7.16372 11.9346 9.07235 11.9346 9.54881 11.9346L9.54578 11.9323ZM15.2689 14.9229V14.9239C15.2666 14.9263 12.5479 17.4705 12.0593 18.3755L13.8395 18.3028V19.8847C13.8395 19.9588 14.5541 19.9287 15.2689 19.8951H15.2699C15.9848 19.9289 16.6993 19.9588 16.6993 19.8848V18.303L18.4795 18.3753C17.9908 17.4704 15.2699 14.9239 15.2699 14.9239V14.923L15.2696 14.9233L15.2689 14.9229Z" fill="white"/>
</g>
<defs>
<clipPath id="clip0_10_502">
<rect width="107" height="28" fill="white"/>
</clipPath>
</defs>
</svg>
