<svg width="59" height="47" viewBox="0 0 59 47" fill="none" xmlns="http://www.w3.org/2000/svg">
<path d="M29.0381 23.5L31.8092 26.2691L37.3474 20.731C38.8164 19.2619 39.6417 17.2694 39.6417 15.1918C39.6417 13.1142 38.8164 11.1217 37.3474 9.65267C36.6199 8.92525 35.7564 8.34824 34.806 7.95457C33.8556 7.5609 32.8369 7.35828 31.8082 7.35828C29.7306 7.35828 27.7381 8.18359 26.2691 9.65267L20.7309 15.1908L23.5 17.9619L29.0381 12.4217C29.7728 11.6871 30.7692 11.2744 31.8082 11.2744C32.8472 11.2744 33.8436 11.6871 34.5783 12.4217C35.3129 13.1564 35.7257 14.1528 35.7257 15.1918C35.7257 16.2308 35.3129 17.2272 34.5783 17.9619L29.0381 23.5ZM23.5 29.0402L26.2691 31.8092L20.7309 37.3474C19.2618 38.8165 17.2693 39.6418 15.1918 39.6418C13.1142 39.6418 11.1217 38.8165 9.6526 37.3474C8.18353 35.8783 7.35822 33.8859 7.35822 31.8083C7.35822 29.7307 8.18353 27.7382 9.6526 26.2691L15.1908 20.731L17.9618 23.5L12.4217 29.0402C11.6873 29.7748 11.2748 30.7712 11.275 31.8099C11.2752 32.8487 11.688 33.8449 12.4227 34.5793C13.1573 35.3137 14.1537 35.7262 15.1924 35.726C16.2312 35.7258 17.2274 35.313 17.9618 34.5783L23.5 29.0402Z" fill="white"/>
<path d="M29.0401 20.7309C29.4076 20.3635 29.614 19.8651 29.614 19.3454C29.614 18.8257 29.4076 18.3273 29.0401 17.9599C28.6726 17.5924 28.1743 17.386 27.6546 17.386C27.1349 17.386 26.6365 17.5924 26.2691 17.9599L17.9618 26.2691C17.7748 26.4497 17.6256 26.6658 17.5229 26.9048C17.4203 27.1437 17.3663 27.4007 17.364 27.6607C17.3618 27.9207 17.4113 28.1786 17.5098 28.4193C17.6082 28.6599 17.7537 28.8786 17.9375 29.0625C18.1214 29.2463 18.3401 29.3917 18.5807 29.4902C18.8214 29.5887 19.0793 29.6382 19.3393 29.636C19.5993 29.6337 19.8563 29.5797 20.0952 29.477C20.3341 29.3744 20.5502 29.2252 20.7309 29.0382L29.0401 20.7309Z" fill="white"/>
<path d="M50.55 33.2C49.8 33.2 49.1833 32.9833 48.7 32.55C48.2333 32.1 48 31.55 48 30.9C48 30.2333 48.2333 29.675 48.7 29.225C49.1833 28.775 49.8 28.55 50.55 28.55C51.2833 28.55 51.8833 28.775 52.35 29.225C52.8333 29.675 53.075 30.2333 53.075 30.9C53.075 31.55 52.8333 32.1 52.35 32.55C51.8833 32.9833 51.2833 33.2 50.55 33.2ZM50.55 23.025C49.8 23.025 49.1833 22.8083 48.7 22.375C48.2333 21.925 48 21.375 48 20.725C48 20.0583 48.2333 19.5 48.7 19.05C49.1833 18.6 49.8 18.375 50.55 18.375C51.2833 18.375 51.8833 18.6 52.35 19.05C52.8333 19.5 53.075 20.0583 53.075 20.725C53.075 21.375 52.8333 21.925 52.35 22.375C51.8833 22.8083 51.2833 23.025 50.55 23.025Z" fill="white"/>
</svg>
