<svg width="40" height="40" viewBox="0 0 40 40" fill="none" xmlns="http://www.w3.org/2000/svg">
<path d="M27.2667 23.3333C27.4 22.2333 27.5 21.1333 27.5 19.9999C27.5 18.8666 27.4 17.7666 27.2667 16.6666H32.9C33.1667 17.7333 33.3333 18.8499 33.3333 19.9999C33.3333 21.1499 33.1667 22.2666 32.9 23.3333M24.3167 32.5999C25.3167 30.7499 26.0833 28.7499 26.6167 26.6666H31.5333C29.9186 29.447 27.3569 31.5532 24.3167 32.5999ZM23.9 23.3333H16.1C15.9333 22.2333 15.8333 21.1333 15.8333 19.9999C15.8333 18.8666 15.9333 17.7499 16.1 16.6666H23.9C24.05 17.7499 24.1667 18.8666 24.1667 19.9999C24.1667 21.1333 24.05 22.2333 23.9 23.3333ZM20 33.2666C18.6167 31.2666 17.5 29.0499 16.8167 26.6666H23.1833C22.5 29.0499 21.3833 31.2666 20 33.2666ZM13.3333 13.3333H8.46666C10.0644 10.545 12.6244 8.43532 15.6667 7.39992C14.6667 9.24992 13.9167 11.2499 13.3333 13.3333ZM8.46666 26.6666H13.3333C13.9167 28.7499 14.6667 30.7499 15.6667 32.5999C12.6304 31.5538 10.0738 29.4469 8.46666 26.6666ZM7.1 23.3333C6.83333 22.2666 6.66666 21.1499 6.66666 19.9999C6.66666 18.8499 6.83333 17.7333 7.1 16.6666H12.7333C12.6 17.7666 12.5 18.8666 12.5 19.9999C12.5 21.1333 12.6 22.2333 12.7333 23.3333M20 6.71659C21.3833 8.71659 22.5 10.9499 23.1833 13.3333H16.8167C17.5 10.9499 18.6167 8.71659 20 6.71659ZM31.5333 13.3333H26.6167C26.0942 11.2693 25.3219 9.27676 24.3167 7.39992C27.3833 8.44992 29.9333 10.5666 31.5333 13.3333ZM20 3.33325C10.7833 3.33325 3.33333 10.8333 3.33333 19.9999C3.33333 24.4202 5.08928 28.6594 8.21488 31.785C9.76252 33.3327 11.5998 34.5603 13.6219 35.3979C15.644 36.2355 17.8113 36.6666 20 36.6666C24.4203 36.6666 28.6595 34.9106 31.7851 31.785C34.9107 28.6594 36.6667 24.4202 36.6667 19.9999C36.6667 17.8112 36.2356 15.644 35.398 13.6219C34.5604 11.5998 33.3328 9.76245 31.7851 8.21481C30.2375 6.66716 28.4001 5.4395 26.3781 4.60193C24.356 3.76435 22.1887 3.33325 20 3.33325Z" fill="white"/>
</svg>
