<svg width="53" height="53" viewBox="0 0 53 53" fill="none" xmlns="http://www.w3.org/2000/svg">
<g clip-path="url(#clip0_6_273)">
<path d="M15.6692 44.5268C10.2284 41.3385 5.58172 33.6416 3.18005 26.8904C2.21538 23.9618 1.885 20.8219 0.641418 18.0064C-0.659493 15.9615 0.864347 13.726 3.10429 13.076C4.10156 12.8846 5.85508 11.944 3.73841 12.6163C1.84075 14.0086 1.6571 11.3525 3.603 11.1843C4.93099 11.0078 5.41985 9.92064 4.96572 8.94197C3.54019 8.01237 8.42241 6.99072 5.96587 5.60362C3.40683 2.8427 9.54543 2.31121 8.03094 5.44678C7.66842 7.85789 12.3203 5.00486 11.241 7.78918C12.338 9.12631 15.3491 8.09352 15.2744 9.96938C16.8725 10.0792 17.421 11.4239 18.9212 11.5271C20.476 12.2293 23.2946 12.7826 23.8237 14.5346C22.2812 15.7559 18.7092 12.0121 18.5376 15.3926C19.1885 27.3169 19.8052 31.4283 25.5632 37.6752C29.4417 42.0636 34.7713 44.1331 39.2705 44.8699C40.2396 44.1286 41.9506 41.3727 43.4624 42.5348C43.5342 43.8405 40.4617 45.2644 43.3179 45.12C44.995 44.6141 46.1583 46.4171 47.5393 44.7908C48.8117 46.298 52.8279 43.8278 51.9226 46.9085C50.6984 47.6983 48.9129 47.2211 47.6867 48.3076C45.665 47.2978 44.0554 49.2111 41.8173 48.9692C33.1888 50.4793 21.9449 49.1171 15.6692 44.5268ZM25.8105 48.2587C29.5721 48.7818 33.4566 49.5865 37.2316 48.8525C35.5231 48.081 33.7567 49.1531 32.0546 48.3008C30.0132 48.7401 27.8225 48.1889 25.7471 47.9176C23.387 46.8663 20.8401 46.1435 18.63 44.7789C15.8684 43.7702 20.0583 46.0725 20.8041 46.2589C22.5304 47.2388 18.9056 45.7566 18.3946 45.3493C16.9487 44.5382 16.7279 44.7272 18.2149 45.5509C20.5336 46.9874 23.4395 47.9612 25.8105 48.2587ZM15.0441 43.1304C17.1405 43.9069 15.0348 41.6561 14.0742 41.7869C13.6486 41.0485 12.4481 40.582 13.2949 40.1854C11.7716 40.7142 11.6992 38.1744 10.9831 38.5373C9.37162 38.0284 10.3559 36.2258 8.43634 35.1188C8.26111 33.9523 6.52912 32.9406 5.9767 31.1812C5.73271 30.2804 4.01993 27.6935 5.07209 30.101C5.96796 32.4186 7.54417 34.4033 8.85588 36.3858C9.87442 38.2733 11.0771 40.246 12.932 41.4235C13.5573 42.0233 14.1611 42.9424 15.0441 43.1304ZM17.7439 39.4773C16.5969 38.8659 14.0998 38.5495 15.8619 39.9482C16.9931 40.4053 19.8761 40.6271 17.7439 39.4773ZM19.6665 41.9082C22.13 42.6051 17.5949 40.3503 19.0586 41.6517L19.6665 41.9082ZM19.6874 40.6028C21.477 40.8335 17.5579 39.3855 19.2947 40.4732L19.6874 40.6028ZM25.9073 44.4273C27.5782 43.4284 27.0273 46.7664 28.742 44.7093C30.4335 43.4743 27.2813 46.2361 29.3659 44.9294C30.8735 43.9211 33.1003 45.4074 34.507 45.8924C35.5186 45.8427 36.502 46.7671 37.5391 46.2047C39.5355 45.667 33.6353 45.4072 35.1819 44.4532C33.3552 44.9848 32.0056 43.8194 31.1067 42.6493C29.0577 42.1761 26.6886 41.1286 25.666 39.3153C25.249 38.6344 26.2683 39.4112 25.3061 38.2983C24.0714 37.2001 23.4548 35.9535 22.626 34.6186C21.6358 34.0904 21.5205 32.5356 21.4204 34.5665C21.4282 33.2847 20.2249 32.422 19.9312 32.7807C19.9259 31.5463 21.219 32.165 20.3138 31.2517C20.119 29.9723 19.4775 28.6392 19.2846 27.1947C18.9851 26.4984 19.2425 25.0071 18.2622 26.5833C17.905 28.2492 18.1436 24.5362 18.699 25.7606C19.428 24.5112 18.4373 24.6581 18.3967 24.8316C18.8716 23.7775 18.6973 22.2822 18.2728 22.8526C18.5259 21.7353 18.6726 18.7407 17.8941 19.2714C18.366 18.103 18.789 13.9252 16.7405 15.5181C15.9103 15.5298 14.4726 15.8195 13.793 16.1574C15.9238 17.332 13.5787 16.5816 12.7113 16.3949C12.5983 17.4818 11.7391 17.0117 10.6658 17.0224C12.3801 17.2345 9.83099 18.7757 8.84753 18.177C7.57028 18.7875 9.94982 20.3113 8.87315 20.7824C9.00547 21.4927 6.91641 20.5259 7.08048 22.1662C5.84053 21.6446 6.90974 24.112 7.53009 23.2775C9.63903 23.8483 9.01473 25.1496 9.06844 26.3857C8.72482 27.106 7.37195 24.6926 8.76713 24.8044C7.66644 23.0164 7.54958 24.1581 6.63494 24.9888C6.42215 25.0491 8.96797 26.1706 7.37034 26.7252C8.77592 26.9421 8.81591 28.1721 9.10206 28.9504C9.94689 29.8304 9.77398 27.9788 10.7849 29.0363C10.1452 28.0942 7.39654 26.3819 9.60955 26.931C9.59772 25.9829 9.20931 25.2183 9.88731 25.2368C10.5587 24.0209 9.18413 28.2348 10.6975 26.6895C11.1165 26.5065 11.2202 25.472 11.9733 26.7872C13.067 27.8631 12.3683 28.6428 10.8255 27.6576C11.1015 28.594 12.8894 28.9286 12.5534 30.3929C12.9096 31.6808 13.408 31.2065 13.8423 31.132C14.1831 32.3834 14.3766 31.4632 14.3927 30.8677C15.9529 31.2017 15.5875 32.124 16.0756 32.7683C17.1507 33.2536 14.5368 29.479 16.3826 31.6333C18.3245 33.3866 17.1213 33.9909 15.3682 33.8376C16.8264 33.9569 16.857 35.2559 18.2064 35.2732C19.3794 35.878 20.3037 38.1469 18.1352 37.19C16.9123 36.4313 14.734 35.6988 16.9079 36.9887C17.4226 37.3144 20.5105 38.4747 22.447 39.6419C23.5192 40.3748 24.4317 41.7645 24.957 41.9888C23.7922 42.5451 21.4468 41.5445 23.1884 41.2379C22.1021 41.04 20.918 40.4828 21.9208 41.8441C22.783 42.6325 25.0553 42.5046 25.4586 42.5883C25.1168 43.3415 24.5301 43.4015 25.4726 43.4599C24.4211 44.0203 25.8098 44.107 25.9073 44.4273ZM23.6433 37.5229C22.9517 36.4324 23.1172 37.6856 23.7569 38.3547C24.7795 39.5709 23.998 37.6653 23.6433 37.5229ZM19.8253 31.8819C19.8253 31.8819 19.9958 30.7315 19.4698 30.6043C18.9439 30.4771 19.2336 30.6888 19.6545 31.5995C19.7549 31.8167 19.8168 31.892 19.816 31.887M14.0682 27.5216C13.5457 26.3515 14.3168 26.9869 14.2045 26.4878C13.9634 25.9862 11.6193 23.3221 12.687 25.3334C13.6533 27.7327 12.0791 25.0322 11.9148 24.2147C11.7333 24.7166 12.2972 26.3609 12.638 26.9213C13.5057 28.2575 13.1154 26.1894 14.0682 27.5216ZM9.26794 22.9077C7.91126 21.7665 9.68619 23.4702 9.13527 23.4487C7.70549 22.4045 8.2899 23.1443 9.09748 23.9468C9.97241 25.2468 10.6945 23.1678 9.26794 22.9077ZM9.96446 23.1039C12.5309 23.809 7.23321 20.6273 9.58091 22.7166L9.96446 23.1039ZM17.0668 26.1373C16.3301 26.1523 17.3723 24.5333 16.3847 24.8528C16.0382 22.3364 15.2915 26.0157 16.3074 26.6248C16.6211 27.5261 16.9507 27.1588 17.0668 26.1373ZM11.0075 22.5578C14.4248 24.1349 8.53321 19.9491 10.0415 22.03C10.2207 22.4311 10.6504 22.4644 11.0075 22.5578ZM11.3991 21.7403C13.9873 22.8101 11.1689 21.0441 10.2725 21.2358C10.4985 21.5666 11.1115 21.4219 11.3991 21.7403ZM11.7457 20.7718C12.5859 20.604 11.6342 20.3346 11.1322 19.9357C9.97021 18.1901 11.305 20.0766 10.9398 20.6124C11.4234 21.0877 13.0671 21.9375 11.7457 20.7718ZM17.6897 18.0636C17.3466 19.8769 16.9966 19.1206 17.4885 17.7687C17.3708 16.0336 16.3164 18.8313 16.7824 19.6525C17.5528 20.8798 18.3233 16.6365 17.6897 18.0636ZM18.7142 39.6531C20.0487 39.9955 20.0419 39.4455 18.8358 39.2821C18.1871 38.6786 16.1401 38.0385 17.9722 39.2072C18.0936 39.5146 18.477 39.5074 18.7142 39.6531ZM13.9761 36.5061C14.7113 37.0543 16.7453 38.0599 15.0235 36.7148C15.604 36.0403 13.9123 35.6813 14.4735 35.2301C13.0461 34.3566 13.3475 34.4343 14.3475 34.4618C12.632 33.6951 14.5951 33.7524 14.5027 33.3595C13.8412 33.2289 11.2172 32.1932 12.7609 33.4446C11.1916 32.6445 12.3869 33.7427 11.9126 33.6266C10.3079 33.189 13.3417 34.8487 11.6577 34.4367C12.5783 35.1663 14.1357 36.3054 12.0469 35.2088C11.7717 35.6049 13.5417 36.2054 13.9761 36.5061ZM30.6499 46.2844C31.3538 45.6024 30.6787 47.3708 31.8163 46.1174C31.8286 45.2201 31.7812 44.6901 30.509 45.7801C30.1583 45.9746 30.0017 46.8016 30.6499 46.2844ZM19.1232 38.8838C19.9062 39.5793 22.7194 39.3941 20.0742 38.9694C19.6824 38.3901 17.5865 38.5296 19.1232 38.8838ZM6.22642 30.2208C5.08903 28.5979 5.51939 27.8685 4.42254 26.5434C4.2149 25.5301 2.54087 23.2307 3.5567 25.6667C4.48714 27.0914 4.76362 29.2973 6.22642 30.2208ZM39.926 46.2375C41.0326 46.0132 43.5544 46.8008 43.9619 45.9441C42.6181 45.9115 39.3126 44.996 39.1562 46.1626L39.926 46.2375ZM2.24356 18.2741C2.04187 17.1179 1.79798 15.0885 3.7271 15.7743C1.15205 16.2856 5.50932 18.9749 4.95908 16.8516C6.04183 16.9046 7.07719 16.2117 6.50898 17.2632C8.64231 17.0276 10.1213 15.1777 12.182 15.4369C13.7871 15.2245 15.5422 15.0634 17.2719 14.4173C18.6941 14.3148 20.0632 12.7836 19.2836 11.876C17.3442 11.7119 15.314 11.9546 13.1703 12.3807C10.7949 12.8745 8.63721 13.8127 6.24047 14.2154C3.90432 14.5293 6.71036 15.0801 6.0412 15.2028C4.82216 15.6258 7.49499 15.911 5.88316 16.3569C4.88772 16.1676 3.85159 15.8256 4.2768 14.7766C2.03897 15.067 0.0725646 15.9957 1.84058 18.273L2.24356 18.2741ZM8.22443 15.7845C10.1755 17.1183 7.88912 13.5949 7.36443 15.5278C7.60813 15.4678 7.99139 15.6101 8.22443 15.7845ZM8.77975 14.8908C10.6293 15.0768 8.49644 13.7165 8.42807 14.5706L8.77975 14.8908ZM11.8794 13.758C14.6094 13.2384 10.8797 12.8907 10.0799 13.8517C10.5868 14.0828 11.1477 13.2071 11.8794 13.758ZM16.5619 12.828C18.2876 12.563 16.8332 11.7708 16.3282 13.0939C16.5113 13.5111 16.5994 12.9688 16.5619 12.828ZM7.27855 19.8782C8.25397 19.8112 8.80465 18.8022 7.0899 18.8602C4.43233 18.5851 9.43463 19.7702 6.74898 19.4313C6.38811 19.6703 7.25758 19.9443 7.27855 19.8782ZM5.91267 12.1732C7.65351 11.581 9.85114 11.078 10.8309 12.5062C10.0939 11.4665 10.5184 10.4668 11.3085 11.9389C12.4258 13.4283 12.8267 11.5562 12.2584 10.7619C12.799 11.617 14.8062 13.4789 12.8128 10.8269C14.1337 9.2381 10.1681 11.035 9.26674 11.0169C8.83307 11.2115 4.78941 12.0481 5.91267 12.1732ZM6.9329 10.2193C7.92571 9.46997 10.3666 10.665 8.80029 9.4746C8.64715 9.33933 5.37011 10.3773 6.9329 10.2193ZM10.5524 10.3687C11.7143 10.3984 10.0512 8.80777 11.4358 9.52853C11.2084 8.78565 9.82373 8.64657 9.14678 8.34977C8.76389 9.02898 9.92613 10.3779 10.5524 10.3687ZM6.28467 5.27584C4.96623 3.55473 8.76418 5.56515 7.42464 3.76309C6.2972 2.86531 5.2138 4.7734 6.28467 5.27584ZM23.2048 14.3895C23.8095 13.3175 20.7082 12.9445 22.7973 14.0096C22.9897 14.0738 22.9462 14.4636 23.2048 14.3895Z" fill="white"/>
</g>
<defs>
<clipPath id="clip0_6_273">
<rect width="51.8919" height="51.8919" fill="white" transform="translate(0.162292 0.48645)"/>
</clipPath>
</defs>
</svg>
