<svg width="53" height="60" viewBox="0 0 53 60" fill="none" xmlns="http://www.w3.org/2000/svg">
<g clip-path="url(#clip0_6_192)">
<path d="M47.8305 53.2858L52.1892 0.126404L0.135139 0.23323L4.74402 53.2858L25.9657 59.418L47.8305 53.2858Z" fill="#E34F26"/>
<path d="M25.9657 54.2841V5.18915L4.5295 5.26037L8.35211 49.1853L25.9657 54.2841Z" fill="#EF652A"/>
<path d="M10.4242 17.4541L9.81714 10.9649H42.793L40.9711 30.8598H18.213L19.1054 39.3451L26.3938 41.3057L33.7893 39.1667L34.1822 34.1039H40.7209L39.8276 44.4435L26.3943 48.187L12.8539 44.4435L11.032 24.2638H34.9328L35.6116 17.4541H10.4242Z" fill="white"/>
</g>
<defs>
<clipPath id="clip0_6_192">
<rect width="52.0541" height="59.4904" fill="white" transform="matrix(-1 0 0 1 52.1892 0.0270386)"/>
</clipPath>
</defs>
</svg>
