<svg width="53" height="53" viewBox="0 0 53 53" fill="none" xmlns="http://www.w3.org/2000/svg">
<g clip-path="url(#clip0_6_156)">
<path d="M0.621643 0.351379H52.5135V52.2433H0.621643V0.351379Z" fill="#F7DF1E"/>
<path d="M14.2659 43.7161L18.2371 41.3128C19.0032 42.6711 19.7001 43.8204 21.3717 43.8204C22.9741 43.8204 23.9844 43.1936 23.9844 40.7555V24.1748H28.8609V40.8244C28.8609 45.8753 25.9003 48.1742 21.5808 48.1742C17.6797 48.1742 15.4153 46.1538 14.2658 43.7157" fill="black"/>
<path d="M31.5097 43.1935L35.4803 40.8945C36.5256 42.6015 37.8841 43.8554 40.2874 43.8554C42.308 43.8554 43.5965 42.8452 43.5965 41.4519C43.5965 39.7799 42.2729 39.1876 40.0435 38.2126L38.8247 37.6898C35.3063 36.1922 32.9724 34.3113 32.9724 30.3402C32.9724 26.6828 35.759 23.896 40.1134 23.896C43.2135 23.896 45.4428 24.9759 47.045 27.7974L43.2481 30.2356C42.4121 28.7379 41.5067 28.1459 40.1134 28.1459C38.6853 28.1459 37.7795 29.0515 37.7795 30.2356C37.7795 31.6986 38.6853 32.291 40.775 33.1967L41.9941 33.7191C46.1392 35.4957 48.4731 37.3068 48.4731 41.3822C48.4731 45.7714 45.0247 48.1747 40.392 48.1747C35.8637 48.1747 32.9376 46.0151 31.5097 43.1935Z" fill="black"/>
</g>
<defs>
<clipPath id="clip0_6_156">
<rect width="51.8919" height="51.8919" fill="white" transform="translate(0.621643 0.351379)"/>
</clipPath>
</defs>
</svg>
