<svg width="53" height="53" viewBox="0 0 53 53" fill="none" xmlns="http://www.w3.org/2000/svg">
<g clip-path="url(#clip0_6_151)">
<path d="M13.9148 7.5117C13.9148 4.01929 14.8727 2.11941 20.1613 1.21471C23.7519 0.599447 28.3556 0.522538 32.6499 1.21471C36.0417 1.76204 38.8964 4.23207 38.8964 7.5117V19.0338C38.8964 22.4132 36.1248 25.1813 32.6499 25.1813H20.1613C15.9229 25.1813 12.3507 28.7145 12.3507 32.7089V38.237H8.05663C4.42441 38.237 2.30964 35.6765 1.42125 32.0936C0.222918 27.2802 0.273788 24.4123 1.42125 19.8024C2.4161 15.7809 5.59495 13.659 9.22743 13.659H26.4078V12.1208H13.9145V7.51145L13.9148 7.5117Z" fill="url(#paint0_linear_6_151)"/>
<path d="M38.8967 44.3848C38.8967 47.8772 35.7965 49.6461 32.6502 50.5282C27.9166 51.8582 24.1177 51.6547 20.1616 50.5282C16.8577 49.5874 13.9151 47.6647 13.9151 44.3848V32.8627C13.9151 29.5467 16.7423 26.7152 20.1616 26.7152H32.6502C36.81 26.7152 40.4608 23.2005 40.4608 19.0338V13.6595H45.1435C48.7804 13.6595 50.4927 16.3013 51.39 19.8029C52.6392 24.6661 52.6948 28.3031 51.39 32.0941C50.1269 35.7765 48.7757 38.2375 45.1435 38.2375H26.4081V39.7757H38.8967V44.3848Z" fill="url(#paint1_linear_6_151)"/>
<path d="M17.0381 6.74725C17.0381 5.4716 18.0838 4.44 19.3797 4.44C20.6706 4.44 21.7213 5.47134 21.7213 6.74725C21.7213 8.0188 20.6708 9.04988 19.3797 9.04988C18.0843 9.04988 17.0381 8.01854 17.0381 6.74725ZM31.0902 45.1495C31.0902 43.878 32.1407 42.8469 33.4318 42.8469C34.7272 42.8469 35.7734 43.8783 35.7734 45.1495C35.7734 46.4252 34.7277 47.4568 33.4318 47.4568C32.1409 47.4568 31.0902 46.4255 31.0902 45.1495Z" fill="white"/>
</g>
<defs>
<linearGradient id="paint0_linear_6_151" x1="38.8967" y1="15.3071" x2="0.541884" y2="14.9952" gradientUnits="userSpaceOnUse">
<stop stop-color="#366A96"/>
<stop offset="1" stop-color="#3679B0"/>
</linearGradient>
<linearGradient id="paint1_linear_6_151" x1="52.3476" y1="32.5553" x2="-23.5766" y2="32.5553" gradientUnits="userSpaceOnUse">
<stop stop-color="#FFC836"/>
<stop offset="1" stop-color="#FFE873"/>
</linearGradient>
<clipPath id="clip0_6_151">
<rect width="51.8919" height="51.8919" fill="white" transform="translate(0.486496 0.351379)"/>
</clipPath>
</defs>
</svg>
