<svg width="52" height="48" viewBox="0 0 52 48" fill="none" xmlns="http://www.w3.org/2000/svg">
<g clip-path="url(#clip0_6_271)">
<path d="M42.7536 15.9111C42.2006 15.7199 41.6428 15.5427 41.0809 15.3799C41.1753 14.9912 41.2622 14.6073 41.3394 14.2301C42.6056 8.0363 41.7778 3.04643 38.9503 1.40353C36.2394 -0.171468 31.8058 1.47082 27.3282 5.39747C26.8869 5.78515 26.4554 6.184 26.0341 6.59364C25.7521 6.32124 25.4651 6.05413 25.1732 5.79244C20.4805 1.59396 15.7767 -0.175559 12.9523 1.47205C10.2438 3.05195 9.44174 7.74277 10.5817 13.6128C10.6952 14.1942 10.8232 14.7725 10.9658 15.3473C10.3 15.538 9.65752 15.7409 9.04266 15.9569C3.54075 17.8898 0.0271606 20.9189 0.0271606 24.0609C0.0271606 27.306 3.79916 30.561 9.52964 32.5346C9.99422 32.694 10.4627 32.8416 10.9345 32.9775C10.7813 33.5965 10.6452 34.2198 10.5265 34.8466C9.43971 40.6147 10.2884 45.1947 12.9896 46.7646C15.7796 48.3858 20.4622 46.7196 25.0216 42.7034C25.3913 42.3768 25.7529 42.0411 26.106 41.6964C26.5622 42.1399 27.0306 42.5706 27.5107 42.9879C31.9274 46.8174 36.2893 48.3637 38.9879 46.7895C41.7752 45.1636 42.6811 40.2435 41.505 34.2575C41.4123 33.7885 41.3084 33.3219 41.1934 32.858C41.5222 32.7598 41.845 32.6588 42.1596 32.5536C48.1171 30.5648 51.9932 27.3494 51.9932 24.0609C51.9932 20.9075 48.3661 17.8579 42.7536 15.9111ZM41.4615 30.4305C41.1774 30.5252 40.8859 30.6166 40.5887 30.7056C39.931 28.6076 39.0435 26.3768 37.9573 24.0718C38.9938 21.8218 39.8472 19.6195 40.4864 17.5351C41.018 17.6902 41.5338 17.8536 42.0311 18.0261C46.84 19.6943 49.7733 22.1605 49.7733 24.0609C49.7733 26.0851 46.6054 28.7129 41.4615 30.4305ZM39.3273 34.6919C39.8474 37.3388 39.9214 39.7319 39.577 41.6029C39.2676 43.284 38.6452 44.4048 37.8755 44.8537C36.2379 45.809 32.7357 44.5674 28.9586 41.2922C28.5121 40.9042 28.0764 40.5039 27.652 40.0915C29.1164 38.4779 30.5797 36.602 32.008 34.5185C34.5202 34.2939 36.8936 33.9265 39.0459 33.4252C39.1519 33.8562 39.2461 34.2788 39.3273 34.6919ZM17.7435 44.6887C16.1435 45.2579 14.8691 45.2743 14.0988 44.8267C12.4596 43.8742 11.7782 40.1967 12.7077 35.2639C12.8182 34.681 12.9447 34.1013 13.0871 33.5254C15.2157 34 17.5718 34.3412 20.0899 34.5469C21.5279 36.5856 23.0335 38.4595 24.5509 40.1003C24.2284 40.4147 23.8983 40.7211 23.5609 41.0191C21.5445 42.795 19.5242 44.055 17.7435 44.6887ZM10.2478 30.418C7.71387 29.5452 5.62122 28.411 4.18688 27.1733C2.89788 26.0612 2.24729 24.9568 2.24729 24.0609C2.24729 22.1542 5.06827 19.7221 9.77343 18.0692C10.3444 17.8688 10.9421 17.6796 11.5622 17.502C12.2126 19.6334 13.0656 21.8619 14.0949 24.1153C13.0522 26.4022 12.187 28.6663 11.5303 30.8228C11.0996 30.6985 10.672 30.5635 10.2478 30.418ZM12.7605 13.183C11.7839 8.15391 12.4324 4.36022 14.0647 3.40806C15.8031 2.39393 19.6474 3.83986 23.6993 7.46521C23.9635 7.70215 24.2235 7.94389 24.479 8.19032C22.9692 9.82402 21.4774 11.6839 20.0522 13.7106C17.6081 13.9388 15.2686 14.3054 13.1177 14.7965C12.9852 14.2619 12.8661 13.7237 12.7605 13.183ZM35.1763 18.7606C34.6683 17.8763 34.1414 17.0032 33.596 16.1418C35.254 16.3531 36.8427 16.6335 38.3345 16.9763C37.8867 18.4229 37.3284 19.9351 36.6713 21.4855C36.191 20.5673 35.6926 19.6588 35.1763 18.7606ZM26.0351 9.78904C27.059 10.9069 28.0846 12.1548 29.0932 13.5089C27.0471 13.4115 24.9975 13.4111 22.9513 13.5077C23.961 12.1661 24.9952 10.9198 26.0351 9.78904ZM16.8353 18.7759C16.3255 19.6669 15.8363 20.5697 15.3683 21.4837C14.722 19.9388 14.1688 18.4196 13.7172 16.9526C15.1998 16.6184 16.7809 16.3451 18.4284 16.1377C17.877 17.0043 17.3458 17.8841 16.8353 18.7759ZM18.4757 32.1433C16.7736 31.9519 15.1688 31.6927 13.6865 31.3675C14.1453 29.8743 14.7106 28.3228 15.3709 26.7448C15.8408 27.6594 16.332 28.5628 16.8441 29.4542C17.3706 30.3705 17.9159 31.2681 18.4757 32.1433ZM26.0965 38.4903C25.0441 37.3465 23.9947 36.081 22.9698 34.72C23.9648 34.7592 24.9792 34.7793 26.0102 34.7793C27.0694 34.7793 28.1164 34.7554 29.147 34.7091C28.1351 36.0947 27.1134 37.3621 26.0965 38.4903ZM36.6922 26.6642C37.3869 28.2596 37.9723 29.8029 38.4372 31.2705C36.9306 31.617 35.3038 31.896 33.5897 32.1032C34.139 31.2258 34.6708 30.3375 35.185 29.4388C35.7078 28.5253 36.2103 27.6002 36.6922 26.6642ZM33.2621 28.3212C32.4749 29.6991 31.6435 31.0508 30.7691 32.3743C29.1853 32.4873 27.598 32.5434 26.0102 32.5426C24.3929 32.5426 22.82 32.4919 21.3052 32.3929C20.408 31.0725 19.5608 29.7184 18.7652 28.3335C17.9733 26.9559 17.2339 25.5485 16.5481 24.1143C17.2322 22.6798 17.9696 21.2718 18.7587 19.8931L18.7585 19.8933C19.5473 18.5143 20.3878 17.166 21.2782 15.8513C22.8236 15.7335 24.4084 15.6722 26.01 15.6722C27.6189 15.6722 29.2059 15.7341 30.7509 15.8528C31.6323 17.1655 32.4674 18.5092 33.2548 19.8813C34.0465 21.2569 34.7937 22.6581 35.495 24.0826C34.8009 25.5217 34.0561 26.9355 33.2621 28.3212ZM37.8416 3.34138C39.5816 4.35265 40.2584 8.43066 39.1651 13.7785C39.0953 14.1197 39.0169 14.4672 38.9317 14.8196C36.7755 14.3181 34.4344 13.9452 31.9832 13.7134C30.5554 11.6645 29.0758 9.80172 27.5905 8.18909C27.9797 7.81099 28.3783 7.4427 28.7857 7.08455C32.6222 3.7204 36.2079 2.39209 37.8416 3.34138ZM26.0102 19.385C28.573 19.385 30.6506 21.4786 30.6506 24.0609C30.6506 26.6433 28.573 28.7368 26.0102 28.7368C23.4474 28.7368 21.3698 26.6433 21.3698 24.0609C21.3698 21.4786 23.4474 19.385 26.0102 19.385Z" fill="#00D8FF"/>
</g>
<defs>
<clipPath id="clip0_6_271">
<rect width="51.966" height="46.6362" fill="white" transform="translate(0.0271606 0.810791)"/>
</clipPath>
</defs>
</svg>
