<svg width="53" height="53" viewBox="0 0 53 53" fill="none" xmlns="http://www.w3.org/2000/svg">
<g clip-path="url(#clip0_6_207)">
<mask id="mask0_6_207" style="mask-type:alpha" maskUnits="userSpaceOnUse" x="0" y="0" width="53" height="53">
<path d="M26.5136 52.2433C40.8432 52.2433 52.4595 40.627 52.4595 26.2973C52.4595 11.9678 40.8432 0.351379 26.5136 0.351379C12.184 0.351379 0.567627 11.9678 0.567627 26.2973C0.567627 40.627 12.184 52.2433 26.5136 52.2433Z" fill="white"/>
</mask>
<g mask="url(#mask0_6_207)">
<path d="M26.5136 52.2433C40.8432 52.2433 52.4595 40.627 52.4595 26.2973C52.4595 11.9678 40.8432 0.351379 26.5136 0.351379C12.184 0.351379 0.567627 11.9678 0.567627 26.2973C0.567627 40.627 12.184 52.2433 26.5136 52.2433Z" fill="#D1629B"/>
<path d="M33.2475 27.916C28.8167 35.7045 25.5793 39.3212 23.5351 38.7569C21.8238 38.202 19.206 34.8258 22.0181 29.9787C20.0755 31.1165 19.0304 31.7362 18.9008 31.8473C19.6779 33.3365 19.8813 36.5925 18.2071 39.09C16.5236 41.5874 13.3972 43.1043 10.3725 42.2627C9.39197 41.9852 7.91198 39.9687 9.18847 37.1382C10.3077 34.6407 14.8217 32.2913 15.9964 31.7085L16.3201 31.5235C13.9614 29.4608 8.04148 26.6674 7.21825 22.3847C6.98699 21.1728 7.55123 18.2868 11.1032 14.9662C14.0724 12.1912 18.2348 10.036 22.0643 8.67627C28.5115 6.38229 35.3102 7.74202 36.3461 11.8397C37.3637 15.8819 33.8671 20.7011 29.3811 22.4401C25.3758 23.9849 22.0735 23.7352 20.7046 23.3004C19.1691 22.8008 18.2533 21.7741 18.0313 21.2006C17.9481 20.9786 17.8001 20.5902 18.0313 20.4606C18.1794 20.3774 18.2348 20.4052 18.6326 20.8307C19.0027 21.2377 20.4826 22.329 23.3131 22.0146C30.7129 21.1821 35.1806 15.4287 33.7654 12.33C32.7758 10.1655 27.0777 9.18501 19.9184 12.7185C11.2142 17.0567 10.7425 20.6272 10.6685 21.9869C10.465 25.7238 15.2749 27.694 17.8834 30.4689L17.9759 30.58C18.2903 30.4135 20.4641 29.1371 24.4878 26.7506C25.3573 26.0383 26.0326 26.0846 26.5228 26.8894C27.0962 26.2603 27.3646 25.7794 27.3368 25.4463C27.2812 24.9561 28.5023 26.1308 28.3727 28.2214C28.2433 30.3118 27.3738 29.6643 27.4293 31.7825C25.9492 31.5235 25.2925 30.617 25.459 29.0445C22.6471 33.4475 22.314 36.13 24.4416 37.1105C25.274 37.4064 26.7355 35.7969 28.8537 32.2821C29.0572 31.9287 29.2638 31.5772 29.4735 31.2275C30.8425 28.9428 32.8867 25.7145 33.0255 25.3076C33.2198 24.7526 33.3214 24.1792 33.4139 23.9293C33.5065 23.6795 34.3204 23.4947 35.2547 23.5039C36.189 23.5039 36.2814 23.9108 36.2906 23.9941C36.2999 24.0866 35.8374 25.1966 35.7357 25.9829C35.6431 26.7598 35.7357 27.1576 35.8281 27.8143C35.8836 28.2491 36.152 28.7948 36.4757 29.4146C37.4468 27.8236 39.1581 24.7895 39.3247 23.9387C39.4215 23.4676 39.5512 23.004 39.7131 22.551C39.8057 22.3013 40.6103 22.1163 41.5539 22.1255C42.4789 22.1255 42.5713 22.5326 42.5898 22.6159C42.5898 22.7083 42.1366 23.8183 42.0349 24.6045C41.9331 25.3816 42.0349 25.7794 42.1273 26.4361C42.192 27.0003 42.6268 27.7681 43.0616 28.6282C44.2455 28.0456 45.6516 27.6571 47.2796 27.6478C51.4976 27.6201 53.8747 30.3488 53.7545 32.8555C53.6712 34.8073 51.8767 35.6119 51.5438 35.6675C51.3033 35.7045 51.1737 35.7138 51.1367 35.5287C51.109 35.3992 51.2015 35.3437 51.4883 35.1587C51.7658 34.9736 52.6168 34.4002 52.7739 33.3365C52.922 32.2727 52.1264 29.7475 48.075 29.2665C46.5502 29.049 44.9949 29.2307 43.561 29.7937C43.7738 30.3488 43.9311 30.9129 43.9496 31.4958C43.9958 32.7631 43.117 33.6973 42.2105 34.3633C41.6741 34.7611 41.1192 35.02 40.638 35.1772C40.2681 35.3345 39.7502 35.5102 39.3986 35.4361C38.6031 35.2698 38.1962 34.576 38.7234 33.0313C39.0193 32.1987 39.8519 30.9129 41.2116 29.8123C40.9064 29.1833 40.5549 28.5358 40.3791 27.9438C40.1903 27.3282 40.0421 26.7009 39.9351 26.0661C39.9351 26.0661 38.8251 28.3785 37.3821 30.4689L37.1324 30.8298C37.4099 31.4773 37.6411 32.1802 37.6688 32.8832C37.7008 33.4467 37.5874 34.0088 37.3397 34.5159C37.0919 35.0228 36.7179 35.4575 36.2537 35.7785C35.8038 36.1075 35.3083 36.3694 34.783 36.5554C34.2385 36.7803 33.6599 36.9116 33.0717 36.9439C32.6277 36.9716 32.1837 36.9439 31.934 36.7589C31.5917 36.4999 31.5547 36.1855 31.7305 35.7507C31.8878 35.3807 32.9885 34.1228 33.9135 33.0128C34.1817 32.7074 34.4222 32.393 34.635 32.0878L35.079 31.505C34.7366 30.7651 34.3111 30.0157 34.1078 29.322C33.7562 28.1473 33.6545 27.4443 33.6545 27.4443L33.2475 27.916ZM16.0426 38.1835C16.7602 37.4413 17.2669 36.5212 17.5108 35.5182C17.7547 34.5151 17.7268 33.4651 17.4302 32.4762L17.2267 32.6058L17.1341 32.6612L16.3016 33.1607C15.1769 33.8481 14.1179 34.6376 13.1382 35.5195C11.4917 37.0642 11.1495 39.2194 12.0189 39.7282C12.8237 40.1907 14.7014 39.6357 16.0426 38.1835ZM33.895 35.3899C34.4592 35.0293 35.7172 34.1598 35.7172 32.8555V32.7446C35.4396 33.1237 35.1621 33.466 34.9309 33.762C34.471 34.2966 33.9991 34.8209 33.5157 35.3345C33.5157 35.3345 33.3769 35.4733 33.4325 35.5102C33.525 35.5565 33.71 35.4918 33.895 35.3899ZM40.1293 33.9655C40.8323 33.7158 42.0072 33.096 42.0164 31.4588C42.0143 31.1907 41.9673 30.9251 41.8776 30.6725C41.3 31.1683 40.8281 31.7755 40.4902 32.4577C40.0092 33.5215 39.9814 33.8638 40.1201 33.9655H40.1293Z" fill="white"/>
</g>
</g>
<defs>
<clipPath id="clip0_6_207">
<rect width="51.8919" height="51.8919" fill="white" transform="translate(0.567627 0.351379)"/>
</clipPath>
</defs>
</svg>
