<svg width="53" height="53" viewBox="0 0 53 53" fill="none" xmlns="http://www.w3.org/2000/svg">
<g clip-path="url(#clip0_6_267)">
<path d="M0.891937 26.2973V52.2433H52.7838V0.351379H0.891937V26.2973Z" fill="#007ACC"/>
<path d="M12.3672 26.4697L12.3507 28.5946H19.1048V47.7865H23.8825V28.5946H30.6366V26.5108C30.6366 25.3574 30.6118 24.3938 30.579 24.3691C30.5543 24.3362 26.4441 24.3196 21.4608 24.3279L12.3921 24.3526L12.3674 26.4695L12.3672 26.4697ZM42.7637 24.2922C44.0814 24.6218 45.0864 25.2064 46.0089 26.162C46.4867 26.6728 47.1949 27.6036 47.2527 27.8259C47.2689 27.8918 45.0122 29.4074 43.645 30.2557C43.5955 30.2888 43.3977 30.0745 43.1753 29.7449C42.5083 28.7732 41.8081 28.353 40.7372 28.279C39.1643 28.1718 38.151 28.9955 38.1593 30.3709C38.1593 30.7747 38.2168 31.0134 38.3816 31.343C38.7276 32.0596 39.37 32.4879 41.3881 33.3609C45.1028 34.9591 46.6924 36.0133 47.681 37.5123C48.7847 39.1846 49.0318 41.8532 48.2822 43.8382C47.4587 45.9962 45.416 47.4626 42.5411 47.9485C41.6516 48.1049 39.5431 48.0802 38.5876 47.9073C36.5038 47.5366 34.5268 46.507 33.3078 45.1562C32.83 44.629 31.8992 43.2534 31.957 43.1545C31.9817 43.1217 32.1957 42.9899 32.4345 42.8499C32.6652 42.7181 33.5385 42.2154 34.362 41.7378L35.8529 40.8729L36.1659 41.3343C36.6025 42.0014 37.5578 42.9157 38.1345 43.2204C39.79 44.0937 42.0635 43.97 43.1837 42.965C43.6614 42.5286 43.8591 42.0755 43.8591 41.4082C43.8591 40.807 43.7849 40.5435 43.4719 40.0907C43.0685 39.514 42.2447 39.0279 39.9053 38.015C37.2285 36.8616 36.0753 36.1451 35.021 35.0083C34.4115 34.3495 33.8348 33.2951 33.596 32.4137C33.3984 31.6807 33.3487 29.8439 33.5054 29.1026C34.0574 26.5161 36.0094 24.7124 38.8264 24.1769C39.7405 24.004 41.8657 24.0697 42.7637 24.2922Z" fill="white"/>
</g>
<defs>
<clipPath id="clip0_6_267">
<rect width="51.8919" height="51.8919" fill="white" transform="translate(0.891937 0.351379)"/>
</clipPath>
</defs>
</svg>
