<svg width="80" height="80" viewBox="0 0 80 80" fill="none" xmlns="http://www.w3.org/2000/svg">
<path d="M40 6.66669C35.6226 6.66669 31.2881 7.52888 27.2439 9.20404C23.1997 10.8792 19.525 13.3345 16.4298 16.4298C10.1786 22.681 6.66666 31.1595 6.66666 40C6.66666 54.7334 16.2333 67.2334 29.4667 71.6667C31.1333 71.9334 31.6667 70.9 31.6667 70V64.3667C22.4333 66.3667 20.4667 59.9 20.4667 59.9C18.9333 56.0334 16.7667 55 16.7667 55C13.7333 52.9334 17 53 17 53C20.3333 53.2334 22.1 56.4334 22.1 56.4334C25 61.5 29.9 60 31.8 59.2C32.1 57.0334 32.9667 55.5667 33.9 54.7334C26.5 53.9 18.7333 51.0334 18.7333 38.3334C18.7333 34.6334 20 31.6667 22.1667 29.3C21.8333 28.4667 20.6667 25 22.5 20.5C22.5 20.5 25.3 19.6 31.6667 23.9C34.3 23.1667 37.1667 22.8 40 22.8C42.8333 22.8 45.7 23.1667 48.3333 23.9C54.7 19.6 57.5 20.5 57.5 20.5C59.3333 25 58.1667 28.4667 57.8333 29.3C60 31.6667 61.2667 34.6334 61.2667 38.3334C61.2667 51.0667 53.4667 53.8667 46.0333 54.7C47.2333 55.7334 48.3333 57.7667 48.3333 60.8667V70C48.3333 70.9 48.8667 71.9667 50.5667 71.6667C63.8 67.2 73.3333 54.7334 73.3333 40C73.3333 35.6226 72.4711 31.2881 70.796 27.2439C69.1208 23.1997 66.6655 19.5251 63.5702 16.4298C60.4749 13.3345 56.8003 10.8792 52.7561 9.20404C48.7119 7.52888 44.3774 6.66669 40 6.66669Z" fill="white"/>
</svg>
