<svg width="80" height="80" viewBox="0 0 80 80" fill="none" xmlns="http://www.w3.org/2000/svg">
<path d="M60 10C62.6522 10 65.1957 11.0536 67.0711 12.9289C68.9464 14.8043 70 17.3478 70 20V60C70 62.6522 68.9464 65.1957 67.0711 67.0711C65.1957 68.9464 62.6522 70 60 70H20C17.3478 70 14.8043 68.9464 12.9289 67.0711C11.0536 65.1957 10 62.6522 10 60V20C10 17.3478 11.0536 14.8043 12.9289 12.9289C14.8043 11.0536 17.3478 10 20 10H60ZM60 16.6667H20C19.1159 16.6667 18.2681 17.0179 17.643 17.643C17.0179 18.2681 16.6667 19.1159 16.6667 20V60C16.6667 60.8841 17.0179 61.7319 17.643 62.357C18.2681 62.9821 19.1159 63.3333 20 63.3333H60C60.8841 63.3333 61.7319 62.9821 62.357 62.357C62.9821 61.7319 63.3333 60.8841 63.3333 60V20C63.3333 19.1159 62.9821 18.2681 62.357 17.643C61.7319 17.0179 60.8841 16.6667 60 16.6667ZM26.6667 33.3333C27.4831 33.3334 28.2711 33.6332 28.8812 34.1757C29.4914 34.7182 29.8811 35.4658 29.9767 36.2767L30 36.6667V53.3333C29.9991 54.1829 29.6737 55.0001 29.0905 55.6179C28.5073 56.2357 27.7102 56.6074 26.862 56.6572C26.0139 56.707 25.1787 56.4311 24.5272 55.8858C23.8757 55.3405 23.457 54.567 23.3567 53.7233L23.3333 53.3333V36.6667C23.3333 35.7826 23.6845 34.9348 24.3096 34.3096C24.9348 33.6845 25.7826 33.3333 26.6667 33.3333ZM36.6667 30C37.4473 29.9999 38.2032 30.2738 38.8027 30.7739C39.4021 31.274 39.8069 31.9686 39.9467 32.7367C40.6181 32.3489 41.3115 32.0006 42.0233 31.6933C44.2467 30.7433 47.5767 30.22 50.5833 31.1633C52.16 31.6633 53.7433 32.5967 54.9167 34.1867C55.9667 35.6033 56.5333 37.3267 56.6467 39.2633L56.6667 40V53.3333C56.6657 54.1829 56.3404 55.0001 55.7572 55.6179C55.1739 56.2357 54.3768 56.6074 53.5287 56.6572C52.6805 56.707 51.8454 56.4311 51.1939 55.8858C50.5424 55.3405 50.1237 54.567 50.0233 53.7233L50 53.3333V40C50 38.9 49.7333 38.3867 49.56 38.15C49.3109 37.8409 48.9682 37.621 48.5833 37.5233C47.4233 37.1567 45.7533 37.35 44.6433 37.8233C42.9767 38.5367 41.45 39.6567 40.41 40.6933L40 41.1333V53.3333C39.9991 54.1829 39.6737 55.0001 39.0905 55.6179C38.5073 56.2357 37.7102 56.6074 36.862 56.6572C36.0139 56.707 35.1787 56.4311 34.5272 55.8858C33.8757 55.3405 33.457 54.567 33.3567 53.7233L33.3333 53.3333V33.3333C33.3333 32.4493 33.6845 31.6014 34.3096 30.9763C34.9348 30.3512 35.7826 30 36.6667 30ZM26.6667 23.3333C27.5507 23.3333 28.3986 23.6845 29.0237 24.3096C29.6488 24.9348 30 25.7826 30 26.6667C30 27.5507 29.6488 28.3986 29.0237 29.0237C28.3986 29.6488 27.5507 30 26.6667 30C25.7826 30 24.9348 29.6488 24.3096 29.0237C23.6845 28.3986 23.3333 27.5507 23.3333 26.6667C23.3333 25.7826 23.6845 24.9348 24.3096 24.3096C24.9348 23.6845 25.7826 23.3333 26.6667 23.3333Z" fill="white"/>
</svg>
